<svg width="45" height="46" viewBox="0 0 45 46" fill="none" xmlns="http://www.w3.org/2000/svg">
<path d="M22.9888 9.40207C22.8579 9.27689 22.6838 9.20703 22.5028 9.20703C22.3217 9.20703 22.1476 9.27689 22.0167 9.40207L5.83606 24.8594C5.76734 24.9251 5.71267 25.0041 5.67536 25.0916C5.63805 25.1791 5.61886 25.2732 5.61897 25.3683L5.61633 39.8755C5.61633 40.6214 5.91265 41.3368 6.4401 41.8642C6.96754 42.3917 7.68291 42.688 8.42883 42.688H16.8751C17.2481 42.688 17.6058 42.5399 17.8695 42.2761C18.1332 42.0124 18.2814 41.6547 18.2814 41.2818V29.3286C18.2814 29.1422 18.3554 28.9633 18.4873 28.8314C18.6192 28.6996 18.798 28.6255 18.9845 28.6255H26.0157C26.2022 28.6255 26.3811 28.6996 26.5129 28.8314C26.6448 28.9633 26.7189 29.1422 26.7189 29.3286V41.2818C26.7189 41.6547 26.867 42.0124 27.1308 42.2761C27.3945 42.5399 27.7522 42.688 28.1251 42.688H36.5679C37.3138 42.688 38.0292 42.3917 38.5566 41.8642C39.0841 41.3368 39.3804 40.6214 39.3804 39.8755V25.3683C39.3805 25.2732 39.3613 25.1791 39.324 25.0916C39.2867 25.0041 39.232 24.9251 39.1633 24.8594L22.9888 9.40207Z" fill="white"/>
<path d="M43.1464 21.9585L36.5722 15.6691V6.125C36.5722 5.75204 36.424 5.39436 36.1603 5.13063C35.8966 4.86691 35.5389 4.71875 35.1659 4.71875H30.9472C30.5742 4.71875 30.2165 4.86691 29.9528 5.13063C29.6891 5.39436 29.5409 5.75204 29.5409 6.125V8.93751L24.4503 4.07012C23.974 3.58848 23.2656 3.3125 22.5 3.3125C21.7371 3.3125 21.0305 3.58848 20.5541 4.071L1.8598 21.9568C1.31312 22.4841 1.24456 23.3516 1.74203 23.9229C1.86695 24.0671 2.0199 24.1844 2.19158 24.2676C2.36327 24.3508 2.55009 24.3982 2.74067 24.4069C2.93126 24.4156 3.12163 24.3855 3.30019 24.3183C3.47875 24.2511 3.64177 24.1482 3.77933 24.016L22.0166 6.58907C22.1475 6.46389 22.3216 6.39403 22.5027 6.39403C22.6837 6.39403 22.8578 6.46389 22.9887 6.58907L41.2278 24.016C41.4964 24.2737 41.8563 24.4143 42.2285 24.4071C42.6007 24.3998 42.9548 24.2453 43.2132 23.9774C43.7529 23.4184 43.708 22.4955 43.1464 21.9585Z" fill="white"/>
</svg>
