<svg width="32" height="32" viewBox="0 0 32 32" fill="none" xmlns="http://www.w3.org/2000/svg">
<path d="M26.6666 23.3333C27.1803 23.3335 27.6741 23.5314 28.0458 23.8858C28.4176 24.2403 28.6387 24.7241 28.6633 25.2372C28.688 25.7502 28.5144 26.2531 28.1784 26.6416C27.8424 27.0301 27.3699 27.2744 26.8586 27.324L26.6666 27.3333H5.33331C4.81969 27.333 4.32585 27.1352 3.95413 26.7807C3.58241 26.4263 3.3613 25.9424 3.33661 25.4294C3.31193 24.9164 3.48557 24.4135 3.82155 24.025C4.15753 23.6365 4.63009 23.3922 5.14131 23.3426L5.33331 23.3333H26.6666ZM26.6666 14C27.1971 14 27.7058 14.2107 28.0809 14.5857C28.4559 14.9608 28.6666 15.4695 28.6666 16C28.6666 16.5304 28.4559 17.0391 28.0809 17.4142C27.7058 17.7892 27.1971 18 26.6666 18H5.33331C4.80288 18 4.29417 17.7892 3.9191 17.4142C3.54403 17.0391 3.33331 16.5304 3.33331 16C3.33331 15.4695 3.54403 14.9608 3.9191 14.5857C4.29417 14.2107 4.80288 14 5.33331 14H26.6666ZM26.6666 4.66663C27.1971 4.66663 27.7058 4.87734 28.0809 5.25241C28.4559 5.62749 28.6666 6.13619 28.6666 6.66663C28.6666 7.19706 28.4559 7.70577 28.0809 8.08084C27.7058 8.45591 27.1971 8.66663 26.6666 8.66663H5.33331C4.80288 8.66663 4.29417 8.45591 3.9191 8.08084C3.54403 7.70577 3.33331 7.19706 3.33331 6.66663C3.33331 6.13619 3.54403 5.62749 3.9191 5.25241C4.29417 4.87734 4.80288 4.66663 5.33331 4.66663H26.6666Z" fill="#F8F8F8"/>
</svg>
