<svg width="21" height="21" viewBox="0 0 21 21" fill="none" xmlns="http://www.w3.org/2000/svg">
<path fill-rule="evenodd" clip-rule="evenodd" d="M11.9583 2.16663C11.9583 4.58287 13.917 6.54163 16.3333 6.54163C16.6785 6.54163 16.9583 6.82145 16.9583 7.16663C16.9583 7.5118 16.6785 7.79163 16.3333 7.79163C14.5663 7.79163 12.9895 6.97683 11.9583 5.70246V15.5C11.9583 17.6861 10.1861 19.4583 7.99996 19.4583C5.81383 19.4583 4.04163 17.6861 4.04163 15.5C4.04163 13.3138 5.81383 11.5416 7.99996 11.5416C9.04764 11.5416 10.0002 11.9486 10.7083 12.6132V2.16663H11.9583ZM10.7083 15.5C10.7083 14.0042 9.49573 12.7916 7.99996 12.7916C6.50419 12.7916 5.29163 14.0042 5.29163 15.5C5.29163 16.9957 6.50419 18.2083 7.99996 18.2083C9.49573 18.2083 10.7083 16.9957 10.7083 15.5Z" fill="white"/>
</svg>
