<svg width="45" height="46" viewBox="0 0 45 46" fill="none" xmlns="http://www.w3.org/2000/svg">
<g filter="url(#filter0_d_1_614)">
<path d="M30.4935 13.1562C30.149 17.803 26.6264 20.1875 22.7592 20.1875C18.892 20.1875 15.3632 17.8039 15.0248 13.1562C14.6732 8.32227 18.101 4.71875 22.7592 4.71875C27.4174 4.71875 30.8451 8.41016 30.4935 13.1562Z" fill="white"/>
<path d="M30.4935 13.1562C30.149 17.803 26.6264 20.1875 22.7592 20.1875C18.892 20.1875 15.3632 17.8039 15.0248 13.1562C14.6732 8.32227 18.101 4.71875 22.7592 4.71875C27.4174 4.71875 30.8451 8.41016 30.4935 13.1562Z" stroke="white" stroke-width="2.8125" stroke-linecap="round" stroke-linejoin="round"/>
</g>
<g filter="url(#filter1_d_1_614)">
<path d="M22.5002 25.8125C14.8537 25.8125 7.09299 30.0313 5.65685 37.9941C5.48371 38.9539 6.02687 39.875 7.03146 39.875H37.969C38.9744 39.875 39.5176 38.9539 39.3444 37.9941C37.9074 30.0313 30.1467 25.8125 22.5002 25.8125Z" fill="white"/>
<path d="M22.5002 25.8125C14.8537 25.8125 7.09299 30.0313 5.65685 37.9941C5.48371 38.9539 6.02687 39.875 7.03146 39.875H37.969C38.9744 39.875 39.5176 38.9539 39.3444 37.9941C37.9074 30.0313 30.1467 25.8125 22.5002 25.8125Z" stroke="white" stroke-width="2.8125" stroke-miterlimit="10"/>
</g>
<defs>
<filter id="filter0_d_1_614" x="13.5938" y="3.3125" width="18.3308" height="21.2813" filterUnits="userSpaceOnUse" color-interpolation-filters="sRGB">
<feFlood flood-opacity="0" result="BackgroundImageFix"/>
<feColorMatrix in="SourceAlpha" type="matrix" values="0 0 0 0 0 0 0 0 0 0 0 0 0 0 0 0 0 0 127 0" result="hardAlpha"/>
<feOffset dy="3"/>
<feComposite in2="hardAlpha" operator="out"/>
<feColorMatrix type="matrix" values="0 0 0 0 0.917587 0 0 0 0 0.468523 0 0 0 0 0.369173 0 0 0 1 0"/>
<feBlend mode="normal" in2="BackgroundImageFix" result="effect1_dropShadow_1_614"/>
<feBlend mode="normal" in="SourceGraphic" in2="effect1_dropShadow_1_614" result="shape"/>
</filter>
<filter id="filter1_d_1_614" x="4.21899" y="24.4062" width="36.5634" height="19.875" filterUnits="userSpaceOnUse" color-interpolation-filters="sRGB">
<feFlood flood-opacity="0" result="BackgroundImageFix"/>
<feColorMatrix in="SourceAlpha" type="matrix" values="0 0 0 0 0 0 0 0 0 0 0 0 0 0 0 0 0 0 127 0" result="hardAlpha"/>
<feOffset dy="3"/>
<feComposite in2="hardAlpha" operator="out"/>
<feColorMatrix type="matrix" values="0 0 0 0 0.917587 0 0 0 0 0.468523 0 0 0 0 0.369173 0 0 0 1 0"/>
<feBlend mode="normal" in2="BackgroundImageFix" result="effect1_dropShadow_1_614"/>
<feBlend mode="normal" in="SourceGraphic" in2="effect1_dropShadow_1_614" result="shape"/>
</filter>
</defs>
</svg>
